<svg xmlns="http://www.w3.org/2000/svg" width="81" height="59" viewBox="0 0 81 59">
  <defs>
    <style>
      .cls-1 {
        fill: #fff;
        fill-rule: evenodd;
      }
    </style>
  </defs>
  <path id="Hamburger_Menu" data-name="Hamburger Menu" class="cls-1" d="M1487.19,40h68.62a6.191,6.191,0,0,1,0,12.383h-68.62A6.191,6.191,0,0,1,1487.19,40Zm0,0h68.62a6.191,6.191,0,0,1,0,12.383h-68.62A6.191,6.191,0,0,1,1487.19,40Zm0,0h68.62a6.191,6.191,0,0,1,0,12.383h-68.62A6.191,6.191,0,0,1,1487.19,40Zm0,23.309h68.62a6.191,6.191,0,0,1,0,12.383h-68.62A6.191,6.191,0,0,1,1487.19,63.309Zm0,0h68.62a6.191,6.191,0,0,1,0,12.383h-68.62A6.191,6.191,0,0,1,1487.19,63.309Zm0,0h68.62a6.191,6.191,0,0,1,0,12.383h-68.62A6.191,6.191,0,0,1,1487.19,63.309Zm0,23.309h68.62a6.191,6.191,0,0,1,0,12.383h-68.62A6.191,6.191,0,0,1,1487.19,86.617Zm0,0h68.62a6.191,6.191,0,0,1,0,12.383h-68.62A6.191,6.191,0,0,1,1487.19,86.617Zm0,0h68.62a6.191,6.191,0,0,1,0,12.383h-68.62A6.191,6.191,0,0,1,1487.19,86.617Z" transform="translate(-1481 -40)"/>
</svg>
